<svg xmlns="http://www.w3.org/2000/svg" version="1.1" xmlns:xlink="http://www.w3.org/1999/xlink" xmlns:svgjs="http://svgjs.dev/svgjs" width="1500" height="1500" viewBox="0 0 1500 1500"><rect width="1500" height="1500" fill="#ffffff"></rect><g transform="matrix(0.6666666666666666,0,0,0.6666666666666666,249.39393939393938,546.8533206849007)"><svg viewBox="0 0 396 161" data-background-color="#ffffff" preserveAspectRatio="xMidYMid meet" height="609" width="1500" xmlns="http://www.w3.org/2000/svg" xmlns:xlink="http://www.w3.org/1999/xlink"><g id="tight-bounds" transform="matrix(1,0,0,1,0.2400000000000091,0.05816593529799263)"><svg viewBox="0 0 395.52 160.88366812940401" height="160.88366812940401" width="395.52"><g><svg viewBox="0 0 725.5807349144063 295.14080237929414" height="160.88366812940401" width="395.52"><g><rect width="13.732334684006396" height="215.45734355207387" x="280.37988011519997" y="39.84172941361014" fill="#000000" opacity="1" stroke-width="0" stroke="transparent" fill-opacity="1" class="rect-yte-0" data-fill-palette-color="primary" rx="1%" id="yte-0" data-palette-color="#6b7280"></rect></g><g transform="matrix(1,0,0,1,330.06073491440634,40.377692954784436)"><svg viewBox="0 0 395.52 214.38541646972527" height="214.38541646972527" width="395.52"><g id="textblocktransform"><svg viewBox="0 0 395.52 214.38541646972527" height="214.38541646972527" width="395.52" id="textblock"><g><svg viewBox="0 0 395.52 152.27519999999996" height="152.27519999999996" width="395.52"><g transform="matrix(1,0,0,1,0,0)"><svg width="395.52" viewBox="1.45 -34 89.99 34.65" height="152.27519999999996" data-palette-color="#6b7280"><g class="wordmark-text-0" data-fill-palette-color="primary" id="text-0"><path d="M8.5 0.65L8.5 0.65Q6.65 0.65 5.05 0.1 3.45-0.45 2.45-1.45 1.45-2.45 1.45-3.85L1.45-3.85Q1.45-4.6 1.83-5.28 2.2-5.95 3.05-5.95L3.05-5.95Q3.5-5.95 4-5.7L4-5.7Q4.9-5.2 6.3-4.78 7.7-4.35 9.25-4.35L9.25-4.35Q11-4.35 12.35-4.85 13.7-5.35 13.7-6.25L13.7-6.25Q13.7-6.95 12.68-7.25 11.65-7.55 9.25-7.9L9.25-7.9Q7.6-8.2 6.05-8.6 4.5-9 3.5-9.98 2.5-10.95 2.5-12.85L2.5-12.85Q2.5-14.7 3.53-16.43 4.55-18.15 6.6-19.3 8.65-20.45 11.6-20.45L11.6-20.45Q13.15-20.45 14.6-20.1 16.05-19.75 17-19.05 17.95-18.35 17.95-17.3L17.95-17.3Q17.95-16.4 17.32-15.65 16.7-14.9 15.88-14.43 15.05-13.95 14.5-13.95L14.5-13.95Q14.1-13.95 13.55-14.5L13.55-14.5Q12.7-15.2 11.68-15.48 10.65-15.75 9.65-15.75L9.65-15.75Q8.15-15.75 7.23-15.3 6.3-14.85 6.3-14.15L6.3-14.15Q6.3-13.5 7.08-13.1 7.85-12.7 9-12.53 10.15-12.35 11.2-12.2L11.2-12.2Q14.1-11.8 15.8-10.83 17.5-9.85 17.5-7.4L17.5-7.4Q17.5-5.5 16.43-3.63 15.35-1.75 13.33-0.55 11.3 0.65 8.5 0.65ZM29.7 0.65L29.7 0.65Q26.25 0.65 24.17-1.23 22.1-3.1 22.1-6.75L22.1-6.75Q22.1-8.45 22.57-10.05 23.05-11.65 23.85-13.05L23.85-13.05Q23.05-12.55 22.65-12.55L22.65-12.55Q22.05-12.55 21.82-13.23 21.6-13.9 21.6-14.55L21.6-14.55Q21.6-15.7 22.07-16.38 22.55-17.05 23-17.4L23-17.4Q24.05-18.3 26.3-19.38 28.55-20.45 31.7-20.45L31.7-20.45Q36-20.45 38.37-18.05 40.75-15.65 40.75-11.35L40.75-11.35Q40.75-8 39.35-5.28 37.95-2.55 35.47-0.95 33 0.65 29.7 0.65ZM31.25-4.45L31.25-4.45Q33.75-4.45 35.47-6.03 37.2-7.6 37.2-10.2L37.2-10.2Q37.2-12.9 35.45-14.05 33.7-15.2 31.4-15.2L31.4-15.2Q30.35-15.2 29.5-15 28.65-14.8 27.9-14.5L27.9-14.5Q27.2-13.5 26.65-12.25 26.1-11 26.1-9.5L26.1-9.5Q26.1-7 27.6-5.73 29.1-4.45 31.25-4.45ZM50.85 0.65L50.85 0.65Q48.35 0.65 46.97-0.8 45.6-2.25 45.6-5L45.6-5Q45.6-6.95 46.15-9L46.15-9Q46.4-9.85 46.55-10.7 46.7-11.55 46.7-12.4L46.7-12.4Q46.7-14.6 45.35-15.25L45.35-15.25Q44.05-15.95 44.05-16.75L44.05-16.75Q44.05-17.55 44.72-18.35 45.4-19.15 46.4-19.68 47.4-20.2 48.4-20.2L48.4-20.2Q51.25-20.2 51.25-15.55L51.25-15.55Q51.25-14.05 51.02-12.78 50.8-11.5 50.5-10.35L50.5-10.35Q50.3-9.55 50.17-8.75 50.05-7.95 50.05-7.35L50.05-7.35Q50.05-4.85 52.5-4.85L52.5-4.85Q54.8-4.85 56.8-7.3 58.8-9.75 60.1-14.15L60.1-14.15 60.05-15.1Q59.95-17.6 60.92-18.9 61.9-20.2 63.8-20.2L63.8-20.2Q65.45-20.2 65.45-19.15L65.45-19.15Q65.45-18.8 65.32-18.25 65.2-17.7 64.95-16.95L64.95-16.95Q64.45-15.1 64.1-13.03 63.75-10.95 63.75-9.2L63.75-9.2Q63.75-7.25 64.35-5.98 64.95-4.7 66.6-4.25L66.6-4.25Q67.05-4.2 67.32-3.98 67.6-3.75 67.6-3.05L67.6-3.05Q67.6-1.85 66.6-0.7 65.6 0.45 63.7 0.45L63.7 0.45Q60.05 0.45 60.05-4.7L60.05-4.7Q60.05-5.6 60.2-7.4L60.2-7.4 60.1-7.45Q56.95 0.65 50.85 0.65ZM72.34 0.55L72.34 0.55Q71.79 0.55 71.29 0.23 70.79-0.1 70.89-0.65L70.89-0.65Q71.64-4.65 72.17-8.78 72.69-12.9 72.69-17.1L72.69-17.1Q72.69-20.8 72.44-23.8 72.19-26.8 70.84-29.55L70.84-29.55Q70.59-30.1 70.44-30.5 70.29-30.9 70.29-31.25L70.29-31.25Q70.29-32.2 71.39-33.1 72.49-34 73.74-34L73.74-34Q75.54-34 76.19-31.8 76.84-29.6 76.84-25.3L76.84-25.3Q76.84-20.15 76.24-16.32 75.64-12.5 75.19-10.5L75.19-10.5 75.39-10.4Q76.39-12.85 77.94-15.13 79.49-17.4 81.52-18.9 83.54-20.4 85.94-20.4L85.94-20.4Q88.29-20.4 89.57-19 90.84-17.6 90.84-15.65L90.84-15.65Q90.84-13.35 89.19-11.55 87.54-9.75 84.89-8.55L84.89-8.55Q85.54-6.85 86.74-5.88 87.94-4.9 89.79-4.9L89.79-4.9Q90.39-4.9 90.79-5L90.79-5Q91.44-5.15 91.44-3.75L91.44-3.75Q91.44-2.95 91.14-1.95 90.84-0.95 89.97-0.23 89.09 0.5 87.34 0.5L87.34 0.5Q84.99 0.5 83.52-0.88 82.04-2.25 81.22-4.28 80.39-6.3 79.94-8.3L79.94-8.3Q79.54-10.15 81.19-10.25L81.19-10.25Q82.94-10.45 84.14-11.3 85.34-12.15 85.34-13.55L85.34-13.55Q85.34-15.15 83.79-15.15L83.79-15.15Q82.79-15.15 81.77-14.43 80.74-13.7 79.87-12.7 78.99-11.7 78.44-10.75L78.44-10.75Q77.69-9.45 77.14-8.2 76.59-6.95 76.24-5.7L76.24-5.7 76.24-3.7Q76.24-1.85 75.17-0.65 74.09 0.55 72.34 0.55Z" fill="#000000" data-fill-palette-color="primary"></path></g></svg></g></svg></g><g transform="matrix(1,0,0,1,0,188.22372011519994)"><svg viewBox="0 0 232.209792 26.16169635452531" height="26.16169635452531" width="232.209792"><g transform="matrix(1,0,0,1,0,0)"><svg width="232.209792" viewBox="2.4399999999999995 -31.74 286.44 32.28" height="26.16169635452531" data-palette-color="#97978d"><path d="M9.28-0.83L9.28-0.83Q12.65-0.83 13.82-2.88L13.82-2.88Q14.26-3.61 14.26-4.49L14.26-4.49Q14.26-6.54 11.28-8.01L11.28-8.01Q10.64-8.35 9.18-8.98L9.18-8.98Q5.18-10.64 3.86-12.11L3.86-12.11Q2.44-13.72 2.44-15.87L2.44-15.87Q2.44-19.24 6.15-20.61L6.15-20.61Q7.86-21.24 9.86-21.24L9.86-21.24Q13.09-21.24 15.43-19.87L15.43-19.87Q15.43-21.29 16.11-21.48L16.11-21.48Q16.41-21.53 16.75-21.53L16.75-21.53 16.75-15.43 15.48-15.43Q15.38-19.92 10.5-19.97L10.5-19.97Q6.84-19.97 5.96-17.82L5.96-17.82Q5.71-17.24 5.71-16.6L5.71-16.6Q5.71-14.5 8.74-13.04L8.74-13.04Q9.42-12.7 10.89-12.11L10.89-12.11Q14.84-10.5 16.16-9.03L16.16-9.03Q17.58-7.47 17.58-5.32L17.58-5.32Q17.58-1.37 13.38-0.05L13.38-0.05Q11.77 0.49 9.86 0.49L9.86 0.49Q6.35 0.44 3.76-1.27L3.76-1.27Q3.76 0 3.13 0.2L3.13 0.2Q2.83 0.24 2.44 0.24L2.44 0.24 2.44-7.18 3.81-7.18Q3.91-0.88 9.28-0.83ZM25.63-10.4L25.63-10.4Q25.63-17.97 29.78-19.63L29.78-19.63Q30.86-20.02 32.03-20.02L32.03-20.02Q37.45-20.02 38.33-13.18L38.33-13.18Q38.47-12.01 38.47-10.6L38.47-10.6Q38.47-2.39 33.98-0.98L33.98-0.98Q33.1-0.73 32.18-0.73L32.18-0.73Q27.24-0.73 25.97-6.59L25.97-6.59Q25.63-8.3 25.63-10.4ZM32.18-21.24L32.18-21.24Q27.49-21.24 24.36-18.02L24.36-18.02Q21.48-15.04 21.48-10.6L21.48-10.6Q21.48-4.44 25.97-1.37L25.97-1.37Q28.71 0.49 32.03 0.49L32.03 0.49Q36.72 0.49 39.79-2.83L39.79-2.83Q42.62-5.86 42.62-10.4L42.62-10.4Q42.62-16.55 38.08-19.53L38.08-19.53Q35.4-21.24 32.18-21.24ZM69.72-1.22L69.72-1.22 67.28-1.22 67.28-20.75 59.61-20.75 59.61-19.53 63.62-19.53 63.62-8.98Q63.62-4.59 60.54-2.54L60.54-2.54Q59.17-1.61 57.71-1.61L57.71-1.61Q53.71-1.61 53.07-5.71L53.07-5.71Q52.97-6.4 52.97-7.18L52.97-7.18 52.97-20.75 45.55-20.75 45.55-19.53 49.31-19.53 49.31-7.91Q49.36 0.44 56.29 0.49L56.29 0.49Q59.96 0.49 62.3-2.49L62.3-2.49Q63.18-3.61 63.72-4.98L63.72-4.98 64.06 0 70.94 0Q70.94-1.07 70.21-1.17L70.21-1.17Q70.01-1.22 69.72-1.22ZM83.29-1.22L83.29-1.22 81.1-1.22 81.1-8.45 83.78-10.94 90.67 0 97.16 0Q97.16-1.07 96.43-1.17L96.43-1.17Q96.23-1.22 95.94-1.22L95.94-1.22 94.18-1.22 86.32-13.33 90.91-17.63Q92.62-19.24 93.5-19.43L93.5-19.43Q93.89-19.53 94.38-19.53L94.38-19.53Q95.45-19.53 95.55-20.26L95.55-20.26Q95.6-20.51 95.6-20.75L95.6-20.75 87.3-20.75 87.3-19.53 90.96-19.53 81.1-10.4 81.1-31.74 73.77-31.74 73.77-30.52 77.43-30.52 77.43-4.15Q77.43-1.9 76.16-1.46L76.16-1.46Q75.43-1.22 73.77-1.22L73.77-1.22 73.77 0 84.51 0Q84.51-1.07 83.78-1.17L83.78-1.17Q83.59-1.22 83.29-1.22ZM118.35-20.02L118.35-20.02Q121.76-20.02 122.89-17.14L122.89-17.14Q123.28-16.21 123.28-15.14L123.28-15.14Q123.28-12.7 120.93-12.16L120.93-12.16Q119.71-11.91 117.47-11.96L117.47-11.96 112.29-12.11Q112.54-17.72 115.95-19.43L115.95-19.43Q117.08-20.02 118.35-20.02ZM126.84-4.69L126.84-4.69 125.62-5.13Q123.91-1.42 120.1-0.93L120.1-0.93Q119.62-0.88 119.18-0.88L119.18-0.88Q114.05-0.88 112.73-6.98L112.73-6.98Q112.34-8.69 112.29-10.74L112.29-10.74 118.15-10.64Q124.11-10.55 125.82-11.77L125.82-11.77Q127.14-12.74 127.14-14.55L127.14-14.55Q127.14-17.87 123.77-19.82L123.77-19.82Q121.37-21.24 118.25-21.24L118.25-21.24Q112.15-21.24 109.51-16.16L109.51-16.16Q108.14-13.53 108.14-10.21L108.14-10.21Q108.14-4.15 112.49-1.22L112.49-1.22Q115.08 0.49 118.4 0.49L118.4 0.49Q123.67 0.49 126.16-3.32L126.16-3.32Q126.55-4 126.84-4.69ZM140.41-1.22L140.41-1.22 137.78-1.22 137.78-31.74 130.45-31.74 130.45-30.52 134.12-30.52 134.12-4.15Q134.12-1.9 132.85-1.46L132.85-1.46Q132.11-1.22 130.45-1.22L130.45-1.22 130.45 0 141.64 0Q141.64-1.07 140.9-1.17L140.9-1.17Q140.71-1.22 140.41-1.22ZM145.05-9.13L145.05-11.43 156.18-11.43 156.18-9.13 145.05-9.13ZM171.9-20.02L171.9-20.02Q175.32-20.02 176.44-17.14L176.44-17.14Q176.84-16.21 176.84-15.14L176.84-15.14Q176.84-12.7 174.49-12.16L174.49-12.16Q173.27-11.91 171.02-11.96L171.02-11.96 165.85-12.11Q166.09-17.72 169.51-19.43L169.51-19.43Q170.63-20.02 171.9-20.02ZM180.4-4.69L180.4-4.69 179.18-5.13Q177.47-1.42 173.66-0.93L173.66-0.93Q173.17-0.88 172.73-0.88L172.73-0.88Q167.61-0.88 166.29-6.98L166.29-6.98Q165.9-8.69 165.85-10.74L165.85-10.74 171.71-10.64Q177.67-10.55 179.37-11.77L179.37-11.77Q180.69-12.74 180.69-14.55L180.69-14.55Q180.69-17.87 177.32-19.82L177.32-19.82Q174.93-21.24 171.81-21.24L171.81-21.24Q165.7-21.24 163.07-16.16L163.07-16.16Q161.7-13.53 161.7-10.21L161.7-10.21Q161.7-4.15 166.04-1.22L166.04-1.22Q168.63 0.49 171.95 0.49L171.95 0.49Q177.23 0.49 179.72-3.32L179.72-3.32Q180.11-4 180.4-4.69ZM188.6-19.53L192.02-19.53 192.02-20.75 182.55-20.75 182.55-19.53 184.74-19.53 190.7-3.17Q191.68-0.44 192.85 0L192.85 0Q193.43 0.24 194.31 0.24L194.31 0.24 194.95 0.24 201.83-17.82Q202.42-19.34 203.25-19.48L203.25-19.48Q203.49-19.53 203.69-19.53L203.69-19.53Q204.76-19.53 204.86-20.26L204.86-20.26Q204.91-20.51 204.91-20.75L204.91-20.75 197.39-20.75 197.39-19.53 201.05-19.53 194.85-2.88 188.6-19.53ZM217.21-20.02L217.21-20.02Q220.63-20.02 221.75-17.14L221.75-17.14Q222.14-16.21 222.14-15.14L222.14-15.14Q222.14-12.7 219.8-12.16L219.8-12.16Q218.58-11.91 216.33-11.96L216.33-11.96 211.16-12.11Q211.4-17.72 214.82-19.43L214.82-19.43Q215.94-20.02 217.21-20.02ZM225.71-4.69L225.71-4.69 224.49-5.13Q222.78-1.42 218.97-0.93L218.97-0.93Q218.48-0.88 218.04-0.88L218.04-0.88Q212.91-0.88 211.6-6.98L211.6-6.98Q211.21-8.69 211.16-10.74L211.16-10.74 217.02-10.64Q222.97-10.55 224.68-11.77L224.68-11.77Q226-12.74 226-14.55L226-14.55Q226-17.87 222.63-19.82L222.63-19.82Q220.24-21.24 217.11-21.24L217.11-21.24Q211.01-21.24 208.37-16.16L208.37-16.16Q207.01-13.53 207.01-10.21L207.01-10.21Q207.01-4.15 211.35-1.22L211.35-1.22Q213.94 0.49 217.26 0.49L217.26 0.49Q222.53 0.49 225.02-3.32L225.02-3.32Q225.41-4 225.71-4.69ZM238.69-1.22L238.69-1.22 236.5-1.22 236.5-11.77Q236.64-16.31 239.72-18.31L239.72-18.31Q241.04-19.14 242.4-19.14L242.4-19.14Q245.38-19.14 246.46-16.36L246.46-16.36Q246.9-15.23 246.9-13.82L246.9-13.82 246.9-4.15Q246.9-1.9 245.63-1.46L245.63-1.46Q244.89-1.22 243.23-1.22L243.23-1.22 243.23 0 254.22 0Q254.22-1.07 253.49-1.17L253.49-1.17Q253.29-1.22 253-1.22L253-1.22 250.56-1.22 250.56-13.33Q250.56-18.21 247.19-20.31L247.19-20.31Q245.63-21.24 243.82-21.24L243.82-21.24Q240.21-21.24 237.86-18.36L237.86-18.36Q236.98-17.24 236.45-15.87L236.45-15.87 236.25-20.75 229.17-20.75 229.17-19.53 232.83-19.53 232.83-4.15Q232.83-1.9 231.56-1.46L231.56-1.46Q230.83-1.22 229.17-1.22L229.17-1.22 229.17 0 239.91 0Q239.91-1.07 239.18-1.17L239.18-1.17Q238.99-1.22 238.69-1.22ZM256.42-20.75L256.42-19.53 259.83-19.53 259.83-5.76Q260.18 0.34 265.45 0.54L265.45 0.54Q269.94 0.54 271.06-4.98L271.06-4.98Q271.06-5.03 271.06-5.08L271.06-5.08 269.75-5.32Q268.52-1.27 266.18-0.93L266.18-0.93Q263.54-1.03 263.5-4.69L263.5-4.69 263.5-19.53 271.06-19.53 271.06-20.75 263.5-20.75 263.5-26.42 259.83-25.39 259.83-20.75 256.42-20.75ZM280.58-0.83L280.58-0.83Q283.95-0.83 285.12-2.88L285.12-2.88Q285.56-3.61 285.56-4.49L285.56-4.49Q285.56-6.54 282.58-8.01L282.58-8.01Q281.95-8.35 280.49-8.98L280.49-8.98Q276.48-10.64 275.16-12.11L275.16-12.11Q273.75-13.72 273.75-15.87L273.75-15.87Q273.75-19.24 277.46-20.61L277.46-20.61Q279.17-21.24 281.17-21.24L281.17-21.24Q284.39-21.24 286.74-19.87L286.74-19.87Q286.74-21.29 287.42-21.48L287.42-21.48Q287.71-21.53 288.05-21.53L288.05-21.53 288.05-15.43 286.78-15.43Q286.69-19.92 281.8-19.97L281.8-19.97Q278.14-19.97 277.26-17.82L277.26-17.82Q277.02-17.24 277.02-16.6L277.02-16.6Q277.02-14.5 280.05-13.04L280.05-13.04Q280.73-12.7 282.19-12.11L282.19-12.11Q286.15-10.5 287.47-9.03L287.47-9.03Q288.88-7.47 288.88-5.32L288.88-5.32Q288.88-1.37 284.68-0.05L284.68-0.05Q283.07 0.49 281.17 0.49L281.17 0.49Q277.65 0.44 275.07-1.27L275.07-1.27Q275.07 0 274.43 0.2L274.43 0.2Q274.14 0.24 273.75 0.24L273.75 0.24 273.75-7.18 275.11-7.18Q275.21-0.88 280.58-0.83Z" opacity="1" transform="matrix(1,0,0,1,0,0)" fill="#000000" class="slogan-text-1" data-fill-palette-color="secondary" id="text-1"></path></svg></g></svg></g></svg></g></svg></g><g><svg viewBox="0 0 244.43135999999996 295.14080237929414" height="295.14080237929414" width="244.43135999999996"><g><svg xmlns="http://www.w3.org/2000/svg" xml:space="preserve" viewBox="19.263 15.172 42.5 51.31700000000001" x="0" y="0" height="295.14080237929414" width="244.43135999999996" class="icon-icon-0" data-fill-palette-color="accent" id="icon-0"><path d="M40.512 30.654c1.929 0 3.497-1.569 3.497-3.498s-1.568-3.498-3.497-3.498-3.496 1.569-3.496 3.498 1.568 3.498 3.496 3.498m0-4.996c0.825 0 1.497 0.672 1.497 1.498s-0.672 1.498-1.497 1.498a1.499 1.499 0 0 1 0-2.996" fill="#000000" data-fill-palette-color="accent"></path><path d="M53.572 19.422v-2.25a2 2 0 0 0-4 0v1.816H31.885v-1.816a2 2 0 0 0-4 0v2.139c-4.938 1.188-8.622 5.631-8.622 10.928v25c0 6.203 5.047 11.25 11.25 11.25h20c6.203 0 11.25-5.047 11.25-11.25v-25c0-5.142-3.472-9.479-8.191-10.817m-25.687 2.471v1.279a2 2 0 0 0 4 0v-1.684h17.688v1.684a2 2 0 0 0 4 0v-1.121c3.318 1.244 5.69 4.439 5.69 8.188v2.25h-37.5v-2.25c0-3.911 2.577-7.227 6.122-8.346m22.628 42.095h-20c-4.825 0-8.75-3.925-8.75-8.75v-18.75h37.5v18.75c0 4.825-3.925 8.75-8.75 8.75" fill="#000000" data-fill-palette-color="accent"></path><path d="M29.274 46.604l1.57 0.647a1 1 0 0 0 1.306-0.544 1 1 0 0 0-0.544-1.306l-1.57-0.647a1.005 1.005 0 0 0-1.306 0.544 1 1 0 0 0 0.544 1.306M36.063 40.911a1 1 0 0 0 1.309 0.535 1 1 0 0 0 0.535-1.309l-0.657-1.567a1 1 0 0 0-1.309-0.535 1 1 0 0 0-0.535 1.309zM44.787 41.4q0.186 0.074 0.375 0.073c0.395 0 0.77-0.235 0.927-0.625l0.638-1.575a1 1 0 0 0-1.854-0.75l-0.638 1.575a1 1 0 0 0 0.552 1.302M50.993 47.203a1 1 0 0 0 0.392-0.08l1.564-0.666a1 1 0 1 0-0.784-1.84l-1.564 0.666a1 1 0 0 0 0.392 1.92M53.038 54.081l-1.579-0.633a1.001 1.001 0 0 0-0.744 1.858l1.579 0.633a1.002 1.002 0 0 0 1.301-0.557 1 1 0 0 0-0.557-1.301M46.307 59.842a0.999 0.999 0 1 0-1.835 0.793l0.675 1.562a1 1 0 1 0 1.835-0.792zM37.582 59.446a1.004 1.004 0 0 0-1.298 0.563l-0.624 1.582a1.002 1.002 0 0 0 0.93 1.367c0.398 0 0.775-0.24 0.931-0.633l0.624-1.582a1 1 0 0 0-0.563-1.297M30.923 53.792l-1.559 0.682a1 1 0 0 0 0.8 1.832l1.559-0.682a1 1 0 0 0-0.8-1.832M45.916 56.39a3 3 0 0 0 0.142-0.91l0.017-0.001-0.246-9.803-0.008 0.001a3.064 3.064 0 0 0-2.087-3.059c-1.334-0.442-2.75 0.096-3.5 1.208l-0.004-0.003-6.046 7.72 0.013 0.01c-0.176 0.246-0.33 0.514-0.431 0.815a3.07 3.07 0 0 0 1.914 3.861l-0.001 0.004 6.359 2.105h0.001a3.07 3.07 0 0 0 3.877-1.948m-3.745-10.991l0.018-0.022 0.008-0.012-0.001-0.002a0.6 0.6 0 0 1 0.752-0.372 0.6 0.6 0 0 1 0.382 0.749v0.002l-0.001 0.009q-0.006 0.01-0.011 0.02l0.077 2.752 0.004-0.002 0.089 3.531-5.183-1.716z m1.392 10.042c-0.003 0.055-0.003 0.109-0.021 0.163a0.57 0.57 0 0 1-0.718 0.361l-0.001-0.001-2.858-0.945-0.606-0.201v-0.001l-2.854-0.944-0.006-0.001-0.004-0.003-0.01-0.003-0.002-0.004a0.567 0.567 0 0 1-0.345-0.708 0.53 0.53 0 0 1 0.129-0.21l-0.002-0.006 0.4-0.512 6.884 2.278 0.017 0.665 0.001 0.027 0.001 0.04z" fill="#000000" data-fill-palette-color="accent"></path></svg></g></svg></g></svg></g><defs></defs></svg><rect width="395.52" height="160.88366812940401" fill="none" stroke="none" visibility="hidden"></rect></g></svg></g></svg>